<?xml version="1.0" standalone="no"?>
<!DOCTYPE svg PUBLIC "-//W3C//DTD SVG 20010904//EN"
 "http://www.w3.org/TR/2001/REC-SVG-20010904/DTD/svg10.dtd">
<svg version="1.0" xmlns="http://www.w3.org/2000/svg"
 width="554.000000pt" height="554.000000pt" viewBox="0 0 554.000000 554.000000"
 preserveAspectRatio="xMidYMid meet">
<metadata>
Created by potrace 1.16, written by Peter Selinger 2001-2019
</metadata>
<g transform="translate(0.000000,554.000000) scale(0.100000,-0.100000)"
fill="#000000" stroke="none">
<path d="M2965 4847 c-95 -38 -201 -122 -269 -215 -106 -146 -175 -360 -221
-692 -9 -58 -22 -258 -31 -445 -8 -187 -17 -345 -19 -351 -1 -6 -36 -16 -76
-23 -40 -8 -136 -30 -214 -50 l-140 -37 -37 47 c-26 33 -57 57 -105 81 -63 31
-74 33 -168 32 -82 0 -112 -5 -168 -26 -158 -60 -332 -195 -419 -324 -80 -120
-107 -183 -148 -342 l-11 -44 -34 39 c-33 38 -33 38 -54 19 -19 -17 -25 -15
-22 6 0 4 -5 5 -13 2 -7 -3 -19 2 -26 11 -7 8 -20 15 -29 15 -13 0 -17 -7 -14
-27 4 -30 -26 -78 -34 -55 -11 28 -23 9 -23 -35 0 -59 22 -98 86 -149 26 -22
59 -51 73 -66 14 -15 38 -30 53 -33 15 -4 29 -14 33 -22 9 -25 -2 -27 -33 -4
-16 11 -41 25 -56 31 -14 5 -26 16 -26 25 0 8 -12 18 -27 21 -16 4 -41 13 -57
22 -27 13 -36 12 -102 -8 -40 -13 -72 -28 -71 -34 1 -6 -4 -10 -12 -8 -9 2
-11 -3 -7 -13 3 -9 -1 -30 -10 -46 -15 -30 -15 -30 38 -81 67 -65 107 -73 177
-35 49 27 61 26 61 -3 0 -9 12 -27 26 -41 l26 -24 -7 28 c-13 49 -9 97 6 97 7
0 17 8 24 17 12 16 15 16 37 1 18 -12 27 -31 35 -76 6 -33 30 -108 54 -166 50
-126 77 -159 70 -84 -4 32 37 95 73 112 67 32 122 17 154 -40 21 -37 23 -5 3
35 -12 22 -21 48 -21 57 0 27 40 74 75 88 47 20 51 44 21 134 -40 122 -56 222
-56 344 0 201 52 353 154 452 112 110 226 135 318 70 23 -16 43 -33 45 -39 1
-5 -26 -25 -62 -44 -140 -72 -222 -234 -186 -367 16 -61 50 -87 120 -92 80 -6
122 10 191 75 82 76 122 157 128 263 l4 78 82 22 c95 26 253 60 280 60 18 0
18 -6 12 -102 -27 -411 -96 -753 -193 -957 -48 -102 -48 -102 -79 -96 -70 13
-118 -38 -95 -100 10 -27 9 -32 -16 -53 -16 -12 -49 -30 -75 -40 -35 -12 -50
-24 -57 -44 -5 -14 -19 -31 -30 -38 -25 -13 -26 -33 -5 -70 13 -22 15 -34 6
-58 l-10 -30 45 -6 c25 -3 52 -2 61 4 13 7 9 9 -19 10 -20 0 -42 7 -49 15 -20
25 34 77 76 73 24 -2 46 9 93 42 33 25 61 48 61 53 0 4 5 7 10 7 6 0 10 -7 10
-16 0 -8 13 -29 29 -45 36 -35 86 -39 124 -9 49 39 43 131 -11 155 -22 10 -30
25 -13 25 6 0 6 12 1 30 -5 16 -5 32 -1 35 12 7 21 -6 21 -30 0 -44 82 -88
136 -74 40 11 81 52 89 89 7 32 -13 87 -41 111 -27 24 -74 29 -111 14 -18 -8
-33 -10 -33 -4 0 5 7 9 15 9 17 0 35 39 33 73 0 12 16 76 36 142 57 184 105
498 122 801 l7 122 61 11 c33 7 155 30 269 53 172 34 210 39 217 28 5 -8 12
-57 15 -110 l7 -96 44 2 c24 1 50 9 59 18 19 18 38 11 70 -25 11 -12 14 -19 7
-15 -7 4 -26 4 -43 1 -23 -5 -29 -11 -23 -23 6 -15 10 -37 13 -65 1 -5 9 -6
19 -3 12 4 27 -3 42 -19 12 -13 26 -22 30 -20 4 2 7 -9 8 -25 1 -35 -21 -45
-54 -24 -13 9 -24 12 -24 7 0 -5 11 -15 24 -21 18 -8 22 -16 19 -36 -3 -15 -1
-26 6 -26 6 0 11 -4 11 -10 0 -16 67 -104 91 -118 19 -12 21 -20 16 -62 -9
-77 -82 -201 -108 -184 -4 2 -10 0 -14 -6 -12 -19 -47 -10 -75 20 -34 36 -42
38 -35 7 5 -20 1 -26 -32 -38 -39 -16 -148 -94 -174 -125 -13 -16 -12 -17 14
-10 35 8 188 36 204 36 18 0 21 -31 6 -67 -26 -63 -13 -204 22 -248 14 -18 15
-15 11 48 -4 68 8 100 20 50 56 -251 170 -522 272 -648 231 -284 663 -338 965
-121 106 75 136 118 111 155 -21 30 -53 26 -119 -14 -69 -41 -106 -49 -185
-42 -110 10 -243 108 -348 257 -108 152 -221 403 -262 580 -41 179 -39 171
-60 160 -31 -17 -85 -11 -121 13 -41 27 -68 96 -69 173 0 49 1 51 25 46 20 -3
25 0 25 17 0 12 4 19 10 16 6 -3 13 1 16 9 5 12 11 13 24 6 26 -14 29 -13 23
8 -4 16 2 19 43 21 57 2 73 11 21 11 -20 0 -37 4 -37 9 0 5 -11 12 -25 15 -14
4 -28 14 -31 24 -3 9 -13 34 -22 56 -15 37 -15 40 5 77 12 22 17 37 12 33 -5
-3 -16 -19 -25 -36 -15 -28 -19 -30 -55 -24 -22 4 -49 2 -59 -4 -21 -11 -21
-12 -24 41 -1 15 -10 35 -20 45 -18 18 -18 17 -12 -3 4 -12 1 -25 -7 -32 -11
-9 -20 -3 -41 28 -15 22 -34 42 -42 45 -8 3 -14 10 -14 15 0 10 19 9 36 -2 19
-12 37 19 25 42 -32 59 11 117 108 144 83 23 90 22 107 -18 18 -45 36 -45 33
0 -2 19 2 40 9 47 6 6 12 20 12 30 0 17 -19 23 -62 20 -10 -1 -18 4 -19 11 0
6 -4 3 -9 -8 -8 -20 -9 -19 -9 1 -1 27 21 46 43 38 13 -5 16 1 16 30 0 33 3
36 42 46 316 86 468 189 468 318 0 48 -20 72 -59 72 -34 0 -59 -25 -67 -69
-12 -58 -84 -99 -294 -167 -57 -18 -105 -32 -107 -31 -1 2 -14 113 -28 247
-73 687 -153 1018 -281 1160 -65 72 -167 99 -249 67z m-97 -324 c25 -36 46
-101 76 -238 50 -222 117 -657 104 -671 -4 -3 -22 6 -41 20 -19 14 -37 26 -41
26 -4 0 14 -17 41 -39 41 -32 49 -44 51 -75 3 -36 2 -37 -31 -34 -45 3 -57 -7
-57 -47 0 -44 23 -67 58 -59 15 4 31 7 37 8 9 1 29 -133 21 -141 -5 -6 -492
-103 -514 -103 -37 0 16 692 79 1020 29 155 88 302 135 339 36 28 59 26 82 -6z"/>
<path d="M1500 1942 c0 -18 -38 -52 -59 -52 -11 0 -21 -4 -21 -8 0 -5 -11 -14
-25 -20 -21 -10 -23 -15 -15 -36 7 -20 5 -25 -13 -30 -13 -3 -33 -3 -45 1 -20
5 -22 3 -18 -31 4 -26 1 -36 -9 -36 -24 0 -65 -23 -65 -36 0 -7 6 -17 13 -21
8 -4 16 -16 20 -25 4 -12 17 -18 37 -18 29 0 40 -13 20 -25 -22 -14 -9 -26 20
-20 34 7 41 -9 13 -30 -18 -14 -10 -37 12 -29 19 8 55 -13 50 -29 -2 -6 4 -21
13 -33 18 -21 46 -25 70 -10 7 4 12 2 12 -6 0 -9 3 -9 8 -2 14 21 53 37 65 25
15 -15 48 16 40 37 -5 11 -2 14 8 10 8 -3 22 -9 32 -13 10 -4 17 -3 17 4 0 6
14 11 30 11 33 0 38 11 15 30 -22 18 -19 39 5 33 17 -4 20 0 20 25 0 17 6 35
13 39 6 4 20 23 29 41 17 32 17 35 0 57 -9 14 -22 23 -29 20 -6 -2 -19 3 -30
10 -10 8 -30 15 -45 15 -31 0 -38 25 -15 49 10 11 9 13 -5 8 -12 -4 -15 -2
-11 9 3 9 -2 14 -17 14 -29 0 -52 24 -43 46 4 12 3 15 -5 10 -7 -4 -19 0 -28
8 -16 17 -64 22 -64 8z"/>
</g>
</svg>
