<?xml version="1.0" standalone="no"?>
<!DOCTYPE svg PUBLIC "-//W3C//DTD SVG 20010904//EN"
 "http://www.w3.org/TR/2001/REC-SVG-20010904/DTD/svg10.dtd">
<svg version="1.0" xmlns="http://www.w3.org/2000/svg"
 width="558.000000pt" height="559.000000pt" viewBox="0 0 558.000000 559.000000"
 preserveAspectRatio="xMidYMid meet">
<metadata>
Created by potrace 1.16, written by Peter Selinger 2001-2019
</metadata>
<g transform="translate(0.000000,559.000000) scale(0.100000,-0.100000)"
fill="#000000" stroke="none">
<path d="M0 2795 l0 -2795 2790 0 2790 0 0 2795 0 2795 -2790 0 -2790 0 0
-2795z m4265 698 c12 -11 15 -26 12 -50 -3 -18 -2 -33 4 -33 5 0 9 -13 9 -29
0 -23 -6 -31 -30 -40 -29 -10 -30 -11 -16 -33 21 -33 40 -114 31 -135 -5 -10
-9 -136 -10 -280 -1 -283 -4 -297 -54 -291 -26 3 -26 5 -28 88 -1 47 -7 194
-14 326 -10 228 -10 243 7 269 18 28 18 28 -3 16 -12 -6 -24 -8 -26 -4 -3 5
-5 39 -5 78 0 65 3 72 33 102 37 37 65 42 90 16z m-3008 -185 c18 -22 37 -114
28 -134 -4 -11 -9 -137 -10 -281 -2 -283 -4 -297 -54 -291 -26 3 -26 4 -28 98
-1 52 -7 198 -14 324 -12 244 -10 263 35 284 28 14 32 14 43 0z m907 -10 c3
-13 7 -144 9 -292 4 -249 6 -271 23 -284 26 -19 238 -10 312 12 44 14 52 20
52 41 0 30 3 30 -51 5 -54 -24 -117 -26 -148 -4 -72 51 -67 201 9 286 31 35
41 41 77 41 63 0 107 -33 143 -107 17 -34 36 -92 42 -130 10 -57 9 -76 -6
-121 -21 -67 -47 -88 -140 -117 -53 -16 -99 -21 -183 -22 -98 -1 -115 1 -140
20 -51 38 -53 47 -84 463 l-13 165 39 33 c45 39 53 40 59 11z m366 -83 c0 -16
-60 -85 -74 -85 -6 0 -29 18 -50 39 l-38 39 43 46 42 47 39 -38 c21 -20 38
-42 38 -48z m-553 -37 c18 -18 33 -38 33 -47 0 -19 -48 -81 -63 -81 -7 0 -28
13 -47 29 l-35 28 -36 -41 c-36 -40 -37 -41 -57 -23 -12 11 -26 16 -31 12 -6
-3 -11 2 -11 12 0 11 -5 24 -11 30 -8 8 -1 23 29 55 l41 43 36 -35 37 -35 36
42 c20 24 39 43 42 43 2 0 19 -14 37 -32z m-38 -218 c6 -28 16 -81 22 -119 26
-157 -48 -232 -230 -236 l-64 -1 -20 -54 c-35 -94 -123 -160 -213 -160 -35 0
-130 43 -136 61 -3 8 -1 23 4 35 9 19 18 21 92 20 73 -1 87 2 123 26 26 17 50
45 66 78 l26 52 -43 86 c-53 106 -61 137 -46 173 15 35 58 65 72 51 6 -6 27
-66 48 -134 l37 -123 79 1 c43 1 91 7 106 12 l27 11 -15 48 c-9 26 -22 70 -30
96 l-13 49 36 39 c20 21 42 39 49 39 7 0 17 -22 23 -50z m2090 -2 c28 -142 31
-184 16 -235 -8 -28 -22 -56 -29 -63 -27 -22 -140 -50 -227 -56 l-86 -7 -22
-53 c-28 -66 -94 -128 -153 -145 -80 -22 -218 25 -218 74 0 44 11 48 86 36 86
-14 134 -3 189 44 46 40 40 57 -17 57 -60 0 -113 19 -145 52 -25 26 -28 37
-28 96 0 123 72 227 158 227 33 0 45 -7 77 -42 37 -40 80 -144 80 -197 0 -45
10 -48 113 -37 107 12 147 24 147 44 0 8 -9 40 -20 72 -30 88 -24 128 24 167
34 28 44 21 55 -34z m-974 -288 c79 -74 39 -195 -69 -207 -42 -5 -48 -3 -81
30 -29 29 -35 42 -35 76 0 83 51 135 123 127 22 -2 49 -14 62 -26z m992 -132
c18 -18 33 -37 33 -42 -1 -17 -58 -76 -73 -76 -7 0 -26 13 -42 30 l-28 30 -34
-40 c-19 -22 -40 -40 -48 -40 -13 0 -75 64 -75 78 0 5 17 25 39 46 l38 38 38
-33 37 -33 32 36 c17 20 35 37 41 37 5 1 24 -13 42 -31z"/>
<path d="M3485 2839 c-53 -63 -13 -117 93 -126 73 -7 76 -1 37 81 -38 80 -86
97 -130 45z"/>
</g>
</svg>
